<?xml version="1.0" standalone="no"?>
<!DOCTYPE svg PUBLIC "-//W3C//DTD SVG 20010904//EN"
 "http://www.w3.org/TR/2001/REC-SVG-20010904/DTD/svg10.dtd">
<svg version="1.0" xmlns="http://www.w3.org/2000/svg"
 width="512.000000pt" height="512.000000pt" viewBox="0 0 512.000000 512.000000"
 preserveAspectRatio="xMidYMid meet">
<metadata>
Created by potrace 1.14, written by Peter Selinger 2001-2017
</metadata>
<g transform="translate(0.000000,512.000000) scale(0.100000,-0.100000)"
fill="#000000" stroke="none">
<path d="M268 4763 c-105 -27 -187 -94 -236 -192 l-27 -56 0 -1955 0 -1955 27
-55 c46 -93 123 -159 223 -191 32 -10 498 -13 2285 -14 1241 0 2267 3 2294 8
109 19 207 95 255 197 l26 55 3 1940 c2 1733 1 1944 -13 1986 -35 104 -117
188 -221 226 -47 17 -157 18 -2308 18 -1755 0 -2271 -3 -2308 -12z"/>
</g>
</svg>
